<svg width="15" height="17" viewBox="0 0 15 17" fill="none" xmlns="http://www.w3.org/2000/svg">
<path d="M14.1109 4.12561C14.1865 4.16239 14.251 4.22343 14.2915 4.30442C14.2934 4.30828 14.2953 4.31216 14.2971 4.31606C14.301 4.32459 14.3046 4.33327 14.308 4.34208C14.3262 4.39057 14.3343 4.44037 14.3333 4.48941V7.25228C14.3333 7.47089 14.1561 7.64811 13.9375 7.64811C13.7189 7.64811 13.5416 7.47089 13.5416 7.25228V5.12192L11.7395 6.02299C11.544 6.12076 11.3062 6.0415 11.2084 5.84597C11.1107 5.65043 11.1899 5.41267 11.3854 5.3149L13.0524 4.48145L11.3854 3.64799C11.1899 3.55022 11.1107 3.31246 11.2084 3.11692C11.3062 2.92139 11.544 2.84213 11.7395 2.9399L14.1109 4.12561ZM14.3333 12.3901C14.3345 12.4483 14.3229 12.5074 14.2971 12.5635C14.2777 12.6056 14.251 12.6442 14.2182 12.6772C14.1848 12.7103 14.1493 12.7353 14.1109 12.7539L11.7395 13.9397C11.544 14.0374 11.3062 13.9582 11.2084 13.7626C11.1107 13.5671 11.1899 13.3293 11.3854 13.2316L13.0524 12.3981L11.3854 11.5647C11.1899 11.4669 11.1107 11.2291 11.2084 11.0336C11.3062 10.8381 11.544 10.7588 11.7395 10.8566L13.5416 11.7576V9.62728C13.5416 9.40867 13.7189 9.23145 13.9375 9.23145C14.1561 9.23145 14.3333 9.40867 14.3333 9.62728V12.3901ZM2.15591 12.3981L3.82282 13.2316C4.01835 13.3293 4.09761 13.5671 3.99984 13.7626C3.90208 13.9582 3.66431 14.0374 3.46878 13.9397L1.09735 12.7539C1.02177 12.7172 0.95725 12.6561 0.916754 12.5751C0.914823 12.5713 0.912962 12.5674 0.911168 12.5635C0.907242 12.555 0.903616 12.5463 0.900299 12.5375C0.882037 12.489 0.873936 12.4392 0.874965 12.3901V9.62728C0.874965 9.40867 1.05219 9.23145 1.2708 9.23145C1.48941 9.23145 1.66663 9.40867 1.66663 9.62728V11.7576L3.46878 10.8566C3.66431 10.7588 3.90208 10.8381 3.99984 11.0336C4.09761 11.2291 4.01835 11.4669 3.82282 11.5647L2.15591 12.3981ZM1.66663 5.12192V7.25228C1.66663 7.47089 1.48941 7.64811 1.2708 7.64811C1.05219 7.64811 0.874965 7.47089 0.874965 7.25228V4.48941C0.873746 4.43129 0.885348 4.37211 0.911168 4.31606C0.930556 4.27391 0.957254 4.23538 0.990095 4.20234C1.02342 4.16923 1.05896 4.14429 1.09735 4.12561L3.46878 2.9399C3.66431 2.84213 3.90208 2.92139 3.99984 3.11692C4.09761 3.31246 4.01835 3.55022 3.82282 3.64799L2.15591 4.48145L3.82282 5.3149C4.01835 5.41267 4.09761 5.65043 3.99984 5.84597C3.90208 6.0415 3.66431 6.12076 3.46878 6.02299L1.66663 5.12192ZM7.41999 0.964296C7.47499 0.935336 7.53765 0.918945 7.60413 0.918945C7.67061 0.918945 7.73327 0.935336 7.78828 0.964296L10.1562 2.14823C10.3517 2.246 10.4309 2.48377 10.3332 2.6793C10.2354 2.87483 9.99764 2.95409 9.80211 2.85632L7.99996 1.95525V4.08561C7.99996 4.30422 7.82274 4.48145 7.60413 4.48145C7.38552 4.48145 7.2083 4.30422 7.2083 4.08561V1.95525L5.40615 2.85632C5.21062 2.95409 4.97285 2.87483 4.87509 2.6793C4.77732 2.48377 4.85658 2.246 5.05211 2.14823L7.41999 0.964296ZM7.78828 15.9153C7.73327 15.9442 7.67061 15.9606 7.60413 15.9606C7.53765 15.9606 7.47499 15.9442 7.41999 15.9153L5.05211 14.7313C4.85658 14.6336 4.77732 14.3958 4.87509 14.2003C4.97285 14.0047 5.21062 13.9255 5.40615 14.0232L7.2083 14.9243V12.7939C7.2083 12.5753 7.38552 12.3981 7.60413 12.3981C7.82274 12.3981 7.99996 12.5753 7.99996 12.7939V14.9243L9.80211 14.0232C9.99764 13.9255 10.2354 14.0047 10.3332 14.2003C10.4309 14.3958 10.3517 14.6336 10.1562 14.7313L7.78828 15.9153ZM7.99996 7.89275V10.0231C7.99996 10.2417 7.82274 10.4189 7.60413 10.4189C7.38552 10.4189 7.2083 10.2417 7.2083 10.0231V7.89275L5.05211 6.81466C4.85658 6.71689 4.77732 6.47912 4.87509 6.28359C4.97285 6.08806 5.21062 6.0088 5.40615 6.10657L7.60413 7.20556L9.80211 6.10657C9.99764 6.0088 10.2354 6.08806 10.3332 6.28359C10.4309 6.47912 10.3517 6.71689 10.1562 6.81466L7.99996 7.89275Z" fill="white" stroke="white" stroke-width="0.2"/>
</svg>
