<svg width="18" height="21" viewBox="0 0 18 21" fill="none" xmlns="http://www.w3.org/2000/svg">
<path d="M17.2191 5.05053C17.3146 5.09698 17.396 5.17409 17.4472 5.27639C17.4496 5.28127 17.452 5.28617 17.4543 5.29109C17.4592 5.30187 17.4638 5.31283 17.468 5.32397C17.4911 5.38521 17.5013 5.44812 17.5 5.51006V9C17.5 9.27614 17.2761 9.5 17 9.5C16.7238 9.5 16.5 9.27614 16.5 9V6.30902L14.2236 7.44721C13.9766 7.57071 13.6763 7.4706 13.5528 7.22361C13.4293 6.97662 13.5294 6.67628 13.7764 6.55279L15.882 5.5L13.7764 4.44721C13.5294 4.32372 13.4293 4.02338 13.5528 3.77639C13.6763 3.5294 13.9766 3.42929 14.2236 3.55279L17.2191 5.05053ZM17.5 15.4899C17.5015 15.5633 17.4869 15.6381 17.4543 15.7089C17.4298 15.7621 17.396 15.8108 17.3546 15.8526C17.3125 15.8944 17.2676 15.9259 17.2191 15.9495L14.2236 17.4472C13.9766 17.5707 13.6763 17.4706 13.5528 17.2236C13.4293 16.9766 13.5294 16.6763 13.7764 16.5528L15.882 15.5L13.7764 14.4472C13.5294 14.3237 13.4293 14.0234 13.5528 13.7764C13.6763 13.5294 13.9766 13.4293 14.2236 13.5528L16.5 14.691V12C16.5 11.7239 16.7238 11.5 17 11.5C17.2761 11.5 17.5 11.7239 17.5 12V15.4899ZM2.11802 15.5L4.22359 16.5528C4.47058 16.6763 4.5707 16.9766 4.4472 17.2236C4.32371 17.4706 4.02337 17.5707 3.77638 17.4472L0.780898 15.9495C0.685422 15.903 0.603927 15.8259 0.552774 15.7236C0.550335 15.7187 0.547984 15.7138 0.545719 15.7089C0.540759 15.6981 0.536179 15.6872 0.531989 15.676C0.508921 15.6148 0.498689 15.5519 0.499987 15.4899V12C0.499987 11.7239 0.723845 11.5 0.999987 11.5C1.27613 11.5 1.49999 11.7239 1.49999 12V14.691L3.77638 13.5528C4.02337 13.4293 4.32371 13.5294 4.4472 13.7764C4.5707 14.0234 4.47058 14.3237 4.22359 14.4472L2.11802 15.5ZM1.49999 6.30902V9C1.49999 9.27614 1.27613 9.5 0.999987 9.5C0.723845 9.5 0.499987 9.27614 0.499987 9V5.51006C0.498448 5.43665 0.513104 5.3619 0.545719 5.29109C0.570208 5.23786 0.603932 5.18918 0.645415 5.14745C0.687515 5.10563 0.732403 5.07412 0.780898 5.05053L3.77638 3.55279C4.02337 3.42929 4.32371 3.5294 4.4472 3.77639C4.5707 4.02338 4.47058 4.32372 4.22359 4.44721L2.11802 5.5L4.22359 6.55279C4.47058 6.67628 4.5707 6.97662 4.4472 7.22361C4.32371 7.4706 4.02337 7.57071 3.77638 7.44721L1.49999 6.30902ZM8.76738 1.05728C8.83687 1.0207 8.91601 1 8.99999 1C9.08397 1 9.16311 1.0207 9.23259 1.05728L12.2236 2.55279C12.4706 2.67628 12.5707 2.97662 12.4472 3.22361C12.3237 3.4706 12.0234 3.57071 11.7764 3.44721L9.49999 2.30902V5C9.49999 5.27614 9.27613 5.5 8.99999 5.5C8.72385 5.5 8.49999 5.27614 8.49999 5V2.30902L6.22359 3.44721C5.97661 3.57071 5.67627 3.4706 5.55277 3.22361C5.42928 2.97662 5.52939 2.67628 5.77638 2.55279L8.76738 1.05728ZM9.23259 19.9427C9.16311 19.9793 9.08397 20 8.99999 20C8.91601 20 8.83687 19.9793 8.76738 19.9427L5.77638 18.4472C5.52939 18.3237 5.42928 18.0234 5.55277 17.7764C5.67627 17.5294 5.97661 17.4293 6.22359 17.5528L8.49999 18.691V16C8.49999 15.7239 8.72385 15.5 8.99999 15.5C9.27613 15.5 9.49999 15.7239 9.49999 16V18.691L11.7764 17.5528C12.0234 17.4293 12.3237 17.5294 12.4472 17.7764C12.5707 18.0234 12.4706 18.3237 12.2236 18.4472L9.23259 19.9427ZM9.49999 9.80902V12.5C9.49999 12.7761 9.27613 13 8.99999 13C8.72385 13 8.49999 12.7761 8.49999 12.5V9.80902L5.77638 8.44721C5.52939 8.32372 5.42928 8.02338 5.55277 7.77639C5.67627 7.5294 5.97661 7.42929 6.22359 7.55279L8.99999 8.94098L11.7764 7.55279C12.0234 7.42929 12.3237 7.5294 12.4472 7.77639C12.5707 8.02338 12.4706 8.32372 12.2236 8.44721L9.49999 9.80902Z" fill="#2D4257" stroke="#2D4257" stroke-width="0.2"/>
</svg>
